# xmcd
#
# Track frame offsets: 
#        187
#        14965
#        31062
#        46060
#        58057
#        71672
#        87420
#        102907
#        118467
#        133980
#
# Disc length: 1999 seconds
#
# Revision: 5
# Processed by: cddbd v1.5.2PL0 Copyright (c) Steve Scherf et al.
# Submitted via: ExactAudioCopy v1.1
#
DISCID=9407cd0a
DTITLE=Various Artist - Today's Country Classics [CD3]
DYEAR=1994
DGENRE=Country
TTITLE0=George Strait - Does Fort Worth Ever Cross Your Mind
TTITLE1=Reba McEntire - Somebody Should Leave
TTITLE2=Lee Greenwood - Dixie Road
TTITLE3=John Schneider - I've Been Around Enough To Know
TTITLE4=Nicolette Larson - Only Love Will Make It Right
TTITLE5=Steve Wariner - Heart Trouble
TTITLE6=Oak Ridge Boys - Little Things
TTITLE7=Barbara Mandrell - There's No Love In Tennessee
TTITLE8=John Conlee - Years After You
TTITLE9=Ray Stevens - It's Me Again, Margaret
EXTD=YEAR: 1994
EXTT0=
EXTT1=
EXTT2=
EXTT3=
EXTT4=
EXTT5=
EXTT6=
EXTT7=
EXTT8=
EXTT9=
PLAYORDER=
